<?xml version="1.0" encoding="UTF-8"?>
<!DOCTYPE svg PUBLIC "-//W3C//DTD SVG 1.1//EN" "http://www.w3.org/Graphics/SVG/1.1/DTD/svg11.dtd">
<svg xmlns="http://www.w3.org/2000/svg" version="1.1" width="499px" height="500px" style="shape-rendering:geometricPrecision; text-rendering:geometricPrecision; image-rendering:optimizeQuality; fill-rule:evenodd; clip-rule:evenodd" xmlns:xlink="http://www.w3.org/1999/xlink">
<g><path style="opacity:0.004" fill="#fefffe" d="M 447.5,0.5 C 448.833,1.16667 448.833,1.16667 447.5,0.5 Z"/></g>
<g><path style="opacity:0.004" fill="#fefffe" d="M 114.5,4.5 C 115.833,5.16667 115.833,5.16667 114.5,4.5 Z"/></g>
<g><path style="opacity:0.004" fill="#fefffe" d="M 498.5,4.5 C 498.5,4.83333 498.5,5.16667 498.5,5.5C 497.83,5.01865 497.83,4.68532 498.5,4.5 Z"/></g>
<g><path style="opacity:0.004" fill="#fefffe" d="M 374.5,6.5 C 375.833,7.16667 375.833,7.16667 374.5,6.5 Z"/></g>
<g><path style="opacity:0.004" fill="#fefffe" d="M 483.5,30.5 C 484.833,31.1667 484.833,31.1667 483.5,30.5 Z"/></g>
<g><path style="opacity:0.004" fill="#fefffe" d="M 422.5,33.5 C 423.833,34.1667 423.833,34.1667 422.5,33.5 Z"/></g>
<g><path style="opacity:0.004" fill="#fefffe" d="M 75.5,34.5 C 76.8333,35.1667 76.8333,35.1667 75.5,34.5 Z"/></g>
<g><path style="opacity:0.004" fill="#fefffe" d="M 162.5,35.5 C 163.833,36.1667 163.833,36.1667 162.5,35.5 Z"/></g>
<g><path style="opacity:0.004" fill="#fefffe" d="M 209.5,35.5 C 210.833,36.1667 210.833,36.1667 209.5,35.5 Z"/></g>
<g><path style="opacity:0.004" fill="#fefffe" d="M 366.5,37.5 C 367.833,38.1667 367.833,38.1667 366.5,37.5 Z"/></g>
<g><path style="opacity:0.004" fill="#fefffe" d="M 54.5,46.5 C 55.8333,47.1667 55.8333,47.1667 54.5,46.5 Z"/></g>
<g><path style="opacity:0.004" fill="#fefffe" d="M 304.5,56.5 C 305.833,57.1667 305.833,57.1667 304.5,56.5 Z"/></g>
<g><path style="opacity:0.004" fill="#fefffe" d="M 25.5,68.5 C 26.8333,69.1667 26.8333,69.1667 25.5,68.5 Z"/></g>
<g><path style="opacity:0.004" fill="#fefffe" d="M 325.5,71.5 C 326.833,72.1667 326.833,72.1667 325.5,71.5 Z"/></g>
<g><path style="opacity:0.004" fill="#fefffe" d="M 196.5,90.5 C 197.833,91.1667 197.833,91.1667 196.5,90.5 Z"/></g>
<g><path style="opacity:0.004" fill="#fefffe" d="M 82.5,100.5 C 83.8333,101.167 83.8333,101.167 82.5,100.5 Z"/></g>
<g><path style="opacity:0.004" fill="#fefffe" d="M 216.5,106.5 C 217.833,107.167 217.833,107.167 216.5,106.5 Z"/></g>
<g><path style="opacity:0.004" fill="#fefffe" d="M 202.5,108.5 C 203.833,109.167 203.833,109.167 202.5,108.5 Z"/></g>
<g><path style="opacity:0.004" fill="#fefffe" d="M 318.5,108.5 C 319.833,109.167 319.833,109.167 318.5,108.5 Z"/></g>
<g><path style="opacity:0.004" fill="#fefffe" d="M 377.5,110.5 C 378.833,111.167 378.833,111.167 377.5,110.5 Z"/></g>
<g><path style="opacity:0.004" fill="#fefffe" d="M 387.5,135.5 C 388.833,136.167 388.833,136.167 387.5,135.5 Z"/></g>
<g><path style="opacity:0.004" fill="#fefffe" d="M 480.5,159.5 C 481.833,160.167 481.833,160.167 480.5,159.5 Z"/></g>
<g><path style="opacity:0.004" fill="#fefffe" d="M 476.5,174.5 C 477.833,175.167 477.833,175.167 476.5,174.5 Z"/></g>
<g><path style="opacity:0.004" fill="#fefffe" d="M 457.5,204.5 C 458.833,205.167 458.833,205.167 457.5,204.5 Z"/></g>
<g><path style="opacity:0.004" fill="#fefffe" d="M 447.5,225.5 C 448.833,226.167 448.833,226.167 447.5,225.5 Z"/></g>
<g><path style="opacity:0.004" fill="#fefffe" d="M 43.5,239.5 C 44.8333,240.167 44.8333,240.167 43.5,239.5 Z"/></g>
<g><path style="opacity:0.004" fill="#fefffe" d="M 423.5,269.5 C 424.833,270.167 424.833,270.167 423.5,269.5 Z"/></g>
<g><path style="opacity:0.004" fill="#fefffe" d="M 427.5,269.5 C 428.833,270.167 428.833,270.167 427.5,269.5 Z"/></g>
<g><path style="opacity:0.004" fill="#fefffe" d="M 465.5,313.5 C 466.833,314.167 466.833,314.167 465.5,313.5 Z"/></g>
<g><path style="opacity:1" fill="#98b3b3" d="M 243.5,110.5 C 293.532,109.463 339.532,122.296 381.5,149C 396.808,160.15 408.975,173.983 418,190.5C 429.088,216.242 427.755,241.242 414,265.5C 396.572,290.145 373.739,307.978 345.5,319C 293.869,338.661 241.202,342.994 187.5,332C 153.533,324.923 123.199,310.589 96.5,289C 81.0776,274.669 70.9109,257.169 66,236.5C 63.3289,210.515 70.6623,187.848 88,168.5C 112.678,143.573 142.178,127.073 176.5,119C 198.649,113.631 220.982,110.798 243.5,110.5 Z M 196.5,172.5 C 197.167,172.5 197.5,172.833 197.5,173.5C 195.139,173.674 192.806,174.007 190.5,174.5C 192.102,172.926 194.102,172.259 196.5,172.5 Z"/></g>
<g><path style="opacity:1" fill="#354445" d="M 157.5,136.5 C 158.239,136.369 158.906,136.536 159.5,137C 157.604,139.068 155.604,140.901 153.5,142.5C 133.223,149.936 115.389,161.269 100,176.5C 81.9031,196.289 76.2364,219.289 83,245.5C 94.0298,269.197 111.196,287.031 134.5,299C 185.72,324.145 239.387,331.145 295.5,320C 304.622,318.259 313.622,316.092 322.5,313.5C 326.037,312.46 329.37,311.127 332.5,309.5C 358.553,300.918 380.387,286.251 398,265.5C 417.409,237.635 417.075,209.968 397,182.5C 379.402,162.955 358.236,148.788 333.5,140C 289.131,124.934 243.797,121.268 197.5,129C 191.299,130.217 185.299,131.717 179.5,133.5C 174.679,134.597 170.013,134.597 165.5,133.5C 202.647,121.593 240.647,118.093 279.5,123C 316.098,127.416 349.432,140.083 379.5,161C 396.585,173.999 408.085,190.832 414,211.5C 415.062,223.282 414.396,234.949 412,246.5C 402.139,267.696 387.306,284.529 367.5,297C 335.22,315.258 300.554,325.591 263.5,328C 215.682,331.305 170.682,321.971 128.5,300C 108.97,288.803 93.8033,273.303 83,253.5C 75.2002,236.103 74.5335,218.436 81,200.5C 92.4862,176.825 109.986,158.992 133.5,147C 141.201,142.646 149.201,139.146 157.5,136.5 Z M 196.5,172.5 C 197.167,172.5 197.5,172.833 197.5,173.5C 195.139,173.674 192.806,174.007 190.5,174.5C 192.102,172.926 194.102,172.259 196.5,172.5 Z"/></g>
<g><path style="opacity:0.996" fill="#647877" d="M 285.5,239.5 C 286.705,240.672 286.705,242.005 285.5,243.5C 288.32,249.139 291.153,254.806 294,260.5C 297.286,269.584 300.453,278.751 303.5,288C 304.544,289.174 305.544,290.341 306.5,291.5C 306.833,292.833 307.167,292.833 307.5,291.5C 308.833,291.167 310.167,290.833 311.5,290.5C 311.833,291.833 312.167,291.833 312.5,290.5C 313.209,289.596 314.209,289.263 315.5,289.5C 316.209,288.596 317.209,288.263 318.5,288.5C 320.515,287.076 322.848,286.41 325.5,286.5C 325.833,287.833 326.167,287.833 326.5,286.5C 327.167,286.5 327.833,286.5 328.5,286.5C 329.167,286.5 329.5,286.167 329.5,285.5C 329.376,277.656 326.543,270.989 321,265.5C 320.73,259.745 319.23,254.411 316.5,249.5C 320.182,249.335 323.848,249.501 327.5,250C 329.649,251.152 331.482,252.652 333,254.5C 333.667,272.167 333.667,289.833 333,307.5C 331.62,308.256 331.453,308.922 332.5,309.5C 329.37,311.127 326.037,312.46 322.5,313.5C 303.004,312.668 283.338,312.168 263.5,312C 261.895,310.64 260.395,309.14 259,307.5C 257.947,302.166 257.114,296.833 256.5,291.5C 257.492,291.672 258.158,291.338 258.5,290.5C 258.5,290.167 258.5,289.833 258.5,289.5C 261.167,289.5 263.833,289.5 266.5,289.5C 273.681,290.482 274.681,290.482 269.5,289.5C 271.948,288.527 274.615,288.194 277.5,288.5C 277.833,289.833 278.167,289.833 278.5,288.5C 279.189,273.474 279.856,258.307 280.5,243C 279.978,242.05 279.311,241.216 278.5,240.5C 278.624,239.893 278.957,239.56 279.5,239.5C 281.5,238.167 283.5,238.167 285.5,239.5 Z"/></g>
<g><path style="opacity:0.168" fill="#687c7e" d="M 268.5,174.5 C 263.901,174.2 259.401,174.533 255,175.5C 254.5,213.499 254.333,251.499 254.5,289.5C 253.501,251.337 253.168,213.004 253.5,174.5C 258.6,173.2 263.6,173.2 268.5,174.5 Z"/></g>
<g><path style="opacity:0.871" fill="#495556" d="M 268.5,174.5 C 276.684,174.174 284.684,174.508 292.5,175.5C 280.5,175.5 268.5,175.5 256.5,175.5C 256.333,213.168 256.5,250.835 257,288.5C 257.383,289.056 257.883,289.389 258.5,289.5C 258.5,289.833 258.5,290.167 258.5,290.5C 257.833,290.5 257.167,290.5 256.5,290.5C 256.158,289.662 255.492,289.328 254.5,289.5C 254.333,251.499 254.5,213.499 255,175.5C 259.401,174.533 263.901,174.2 268.5,174.5 Z"/></g>
<g><path style="opacity:1" fill="#313a3a" d="M 197.5,173.5 C 202.167,173.5 206.833,173.5 211.5,173.5C 213.167,173.5 214.833,173.5 216.5,173.5C 216.842,174.338 217.508,174.672 218.5,174.5C 218.842,175.338 219.508,175.672 220.5,175.5C 220.842,176.338 221.508,176.672 222.5,176.5C 222.842,177.338 223.508,177.672 224.5,177.5C 224.5,178.167 224.833,178.5 225.5,178.5C 225.5,179.167 225.833,179.5 226.5,179.5C 226.833,179.5 227.167,179.5 227.5,179.5C 227.5,180.167 227.833,180.5 228.5,180.5C 228.5,181.167 228.833,181.5 229.5,181.5C 229.5,182.167 229.833,182.5 230.5,182.5C 230.5,183.167 230.833,183.5 231.5,183.5C 232.958,187.582 235.291,191.082 238.5,194C 238,196.521 236.667,198.354 234.5,199.5C 230.654,200.419 226.987,201.919 223.5,204C 221.527,204.495 219.527,204.662 217.5,204.5C 215.241,199.872 211.908,196.039 207.5,193C 200.171,191.743 196.171,194.91 195.5,202.5C 195.556,205.111 196.556,207.278 198.5,209C 197.549,209.718 197.383,210.551 198,211.5C 201.493,214.163 205.327,216.163 209.5,217.5C 209.5,218.167 209.833,218.5 210.5,218.5C 213.721,221.278 217.388,223.278 221.5,224.5C 225.167,227.833 228.833,231.167 232.5,234.5C 240.721,247.504 241.721,261.17 235.5,275.5C 235.649,276.552 235.483,277.552 235,278.5C 231.342,281.066 227.842,283.732 224.5,286.5C 224.167,286.5 223.833,286.5 223.5,286.5C 222.508,286.328 221.842,286.662 221.5,287.5C 220.508,287.328 219.842,287.662 219.5,288.5C 218.508,288.328 217.842,288.662 217.5,289.5C 217.167,289.5 216.833,289.5 216.5,289.5C 215.209,289.263 214.209,289.596 213.5,290.5C 211.435,290.517 209.435,290.85 207.5,291.5C 204.833,291.5 202.167,291.5 199.5,291.5C 197.958,290.699 196.292,290.366 194.5,290.5C 194.167,290.5 193.833,290.5 193.5,290.5C 192.791,289.596 191.791,289.263 190.5,289.5C 189.486,288.326 188.153,287.66 186.5,287.5C 186.158,286.662 185.492,286.328 184.5,286.5C 184.167,286.5 183.833,286.5 183.5,286.5C 176.784,281.509 170.95,275.175 166,267.5C 165.254,264.211 166.42,261.711 169.5,260C 174.225,256.886 179.392,255.052 185,254.5C 189.39,260.672 194.557,266.338 200.5,271.5C 209.708,273.63 214.708,269.963 215.5,260.5C 215.08,257.721 214.413,255.055 213.5,252.5C 214.447,250.242 213.447,249.075 210.5,249C 211.336,247.757 211.003,246.59 209.5,245.5C 201.09,240.974 192.09,236.808 182.5,233C 180.963,231.89 180.297,230.39 180.5,228.5C 179.178,228.67 178.011,228.337 177,227.5C 175.114,224.052 173.447,220.386 172,216.5C 168.375,202.731 171.875,191.397 182.5,182.5C 183.386,181.675 183.719,180.675 183.5,179.5C 183.5,179.167 183.5,178.833 183.5,178.5C 184.167,178.5 184.5,178.167 184.5,177.5C 184.833,177.5 185.167,177.5 185.5,177.5C 186.167,177.5 186.5,177.167 186.5,176.5C 187.492,176.672 188.158,176.338 188.5,175.5C 189.492,175.672 190.158,175.338 190.5,174.5C 192.806,174.007 195.139,173.674 197.5,173.5 Z"/></g>
<g><path style="opacity:1" fill="#323b3a" d="M 322.5,191.5 C 326.261,205.143 324.928,218.143 318.5,230.5C 317.087,231.935 315.42,232.935 313.5,233.5C 312.005,233.415 311.005,234.081 310.5,235.5C 310.846,236.696 311.346,236.696 312,235.5C 312.204,238.797 313.037,241.797 314.5,244.5C 314.402,246.553 315.069,248.22 316.5,249.5C 319.23,254.411 320.73,259.745 321,265.5C 326.543,270.989 329.376,277.656 329.5,285.5C 328.833,285.5 328.5,285.833 328.5,286.5C 327.833,286.5 327.167,286.5 326.5,286.5C 326.167,286.5 325.833,286.5 325.5,286.5C 322.848,286.41 320.515,287.076 318.5,288.5C 317.209,288.263 316.209,288.596 315.5,289.5C 314.209,289.263 313.209,289.596 312.5,290.5C 312.167,290.5 311.833,290.5 311.5,290.5C 310.167,290.833 308.833,291.167 307.5,291.5C 307.167,291.5 306.833,291.5 306.5,291.5C 305.544,290.341 304.544,289.174 303.5,288C 300.453,278.751 297.286,269.584 294,260.5C 291.153,254.806 288.32,249.139 285.5,243.5C 286.705,242.005 286.705,240.672 285.5,239.5C 283.5,238.167 281.5,238.167 279.5,239.5C 278.957,239.56 278.624,239.893 278.5,240.5C 279.311,241.216 279.978,242.05 280.5,243C 279.856,258.307 279.189,273.474 278.5,288.5C 278.167,288.5 277.833,288.5 277.5,288.5C 274.615,288.194 271.948,288.527 269.5,289.5C 268.5,289.5 267.5,289.5 266.5,289.5C 263.833,289.5 261.167,289.5 258.5,289.5C 257.883,289.389 257.383,289.056 257,288.5C 256.5,250.835 256.333,213.168 256.5,175.5C 268.5,175.5 280.5,175.5 292.5,175.5C 302.187,175.311 310.853,178.644 318.5,185.5C 320.278,187.264 321.611,189.264 322.5,191.5 Z"/></g>
<g><path style="opacity:1" fill="#94b1b1" d="M 153.5,142.5 C 155.326,167.147 156.159,192.147 156,217.5C 157.141,219.609 158.641,221.442 160.5,223C 164.152,223.499 167.818,223.665 171.5,223.5C 175.492,228.49 180.159,232.823 185.5,236.5C 186.086,236.291 186.586,235.957 187,235.5C 188,236.833 189,238.167 190,239.5C 190.414,239.043 190.914,238.709 191.5,238.5C 199.27,242.57 206.603,247.237 213.5,252.5C 214.413,255.055 215.08,257.721 215.5,260.5C 214.708,269.963 209.708,273.63 200.5,271.5C 194.557,266.338 189.39,260.672 185,254.5C 179.392,255.052 174.225,256.886 169.5,260C 166.42,261.711 165.254,264.211 166,267.5C 170.95,275.175 176.784,281.509 183.5,286.5C 183.833,287.833 184.167,287.833 184.5,286.5C 185.492,286.328 186.158,286.662 186.5,287.5C 188.153,287.66 189.486,288.326 190.5,289.5C 191.791,289.263 192.791,289.596 193.5,290.5C 191.523,291.507 191.857,291.507 194.5,290.5C 196.292,290.366 197.958,290.699 199.5,291.5C 202.167,292.833 204.833,292.833 207.5,291.5C 209.435,290.85 211.435,290.517 213.5,290.5C 214.209,289.596 215.209,289.263 216.5,289.5C 217.849,290.644 218.183,290.644 217.5,289.5C 217.842,288.662 218.508,288.328 219.5,288.5C 219.842,287.662 220.508,287.328 221.5,287.5C 221.842,286.662 222.508,286.328 223.5,286.5C 223.833,287.833 224.167,287.833 224.5,286.5C 227.842,283.732 231.342,281.066 235,278.5C 235.483,277.552 235.649,276.552 235.5,275.5C 236.117,275.611 236.617,275.944 237,276.5C 238.577,271.898 240.411,267.565 242.5,263.5C 242.5,266.167 242.5,268.833 242.5,271.5C 243.5,271.5 244.5,271.5 245.5,271.5C 246.514,267.645 246.514,263.812 245.5,260C 245.36,257.307 246.36,255.14 248.5,253.5C 248.937,257.943 249.437,262.61 250,267.5C 250.333,266.167 250.667,264.833 251,263.5C 251.333,263.833 251.667,264.167 252,264.5C 252.168,234.331 252.668,204.331 253.5,174.5C 253.168,213.004 253.501,251.337 254.5,289.5C 255.492,289.328 256.158,289.662 256.5,290.5C 253.833,290.833 253.833,291.167 256.5,291.5C 257.114,296.833 257.947,302.166 259,307.5C 260.395,309.14 261.895,310.64 263.5,312C 283.338,312.168 303.004,312.668 322.5,313.5C 313.622,316.092 304.622,318.259 295.5,320C 239.387,331.145 185.72,324.145 134.5,299C 111.196,287.031 94.0298,269.197 83,245.5C 76.2364,219.289 81.9031,196.289 100,176.5C 115.389,161.269 133.223,149.936 153.5,142.5 Z"/></g>
<g><path style="opacity:0.415" fill="#5e6a6b" d="M 242.5,263.5 C 240.411,267.565 238.577,271.898 237,276.5C 236.617,275.944 236.117,275.611 235.5,275.5C 241.721,261.17 240.721,247.504 232.5,234.5C 233.117,234.389 233.617,234.056 234,233.5C 241.165,242.145 243.998,252.145 242.5,263.5 Z"/></g>
<g><path style="opacity:1" fill="#53696a" d="M 109.5,218.5 C 110.833,218.5 112.167,218.5 113.5,218.5C 115.605,227.432 116.605,227.432 116.5,218.5C 117.5,218.5 118.5,218.5 119.5,218.5C 119.5,222.5 119.5,226.5 119.5,230.5C 118.022,230.762 116.689,230.429 115.5,229.5C 112.45,219.987 110.784,220.32 110.5,230.5C 109.509,226.555 109.176,222.555 109.5,218.5 Z"/></g>
<g><path style="opacity:1" fill="#4b6363" d="M 125.5,218.5 C 130.797,219.032 130.797,219.866 125.5,221C 123.042,226.327 124.709,228.993 130.5,229C 127.863,231.074 125.363,230.907 123,228.5C 122.333,225.833 122.333,223.167 123,220.5C 123.995,219.934 124.828,219.267 125.5,218.5 Z"/></g>
<g><path style="opacity:1" fill="#4c6463" d="M 94.5,218.5 C 96.8273,218.247 98.8273,218.914 100.5,220.5C 92.6105,220.655 92.6105,222.155 100.5,225C 102.036,228.417 100.869,230.25 97,230.5C 95.1878,230.507 93.6878,229.84 92.5,228.5C 94.326,228.08 96.326,228.08 98.5,228.5C 98.5,227.5 98.5,226.5 98.5,225.5C 92.6156,225.337 91.2823,223.004 94.5,218.5 Z"/></g>
<g><path style="opacity:1" fill="#425959" d="M 134.5,218.5 C 137.247,218.187 139.914,218.52 142.5,219.5C 140.604,220.466 138.604,220.799 136.5,220.5C 136.5,221.5 136.5,222.5 136.5,223.5C 143.167,224.167 143.167,224.833 136.5,225.5C 136.5,226.5 136.5,227.5 136.5,228.5C 138.604,228.201 140.604,228.534 142.5,229.5C 139.914,230.48 137.247,230.813 134.5,230.5C 134.5,226.5 134.5,222.5 134.5,218.5 Z"/></g>
<g><path style="opacity:0.499" fill="#424c4e" d="M 181.5,179.5 C 181.833,179.5 182.167,179.5 182.5,179.5C 182.833,179.5 183.167,179.5 183.5,179.5C 183.719,180.675 183.386,181.675 182.5,182.5C 171.875,191.397 168.375,202.731 172,216.5C 173.447,220.386 175.114,224.052 177,227.5C 178.011,228.337 179.178,228.67 180.5,228.5C 180.297,230.39 180.963,231.89 182.5,233C 192.09,236.808 201.09,240.974 209.5,245.5C 211.003,246.59 211.336,247.757 210.5,249C 213.447,249.075 214.447,250.242 213.5,252.5C 206.603,247.237 199.27,242.57 191.5,238.5C 190.914,238.709 190.414,239.043 190,239.5C 189,238.167 188,236.833 187,235.5C 186.586,235.957 186.086,236.291 185.5,236.5C 180.159,232.823 175.492,228.49 171.5,223.5C 167.843,212.639 167.509,201.639 170.5,190.5C 171.675,190.719 172.675,190.386 173.5,189.5C 175.826,186.505 178.16,183.505 180.5,180.5C 181.167,180.5 181.5,180.167 181.5,179.5 Z"/></g>
<g><path style="opacity:0.999" fill="#657878" d="M 234.5,199.5 C 234.217,200.289 233.717,200.956 233,201.5C 232.852,207.249 232.186,212.915 231,218.5C 228.428,221.515 225.261,223.515 221.5,224.5C 217.388,223.278 213.721,221.278 210.5,218.5C 209.833,218.5 209.5,218.167 209.5,217.5C 205.327,216.163 201.493,214.163 198,211.5C 197.383,210.551 197.549,209.718 198.5,209C 196.556,207.278 195.556,205.111 195.5,202.5C 196.171,194.91 200.171,191.743 207.5,193C 211.908,196.039 215.241,199.872 217.5,204.5C 219.527,204.662 221.527,204.495 223.5,204C 226.987,201.919 230.654,200.419 234.5,199.5 Z"/></g>
<g><path style="opacity:0.998" fill="#647878" d="M 165.5,133.5 C 170.013,134.597 174.679,134.597 179.5,133.5C 179.389,134.117 179.056,134.617 178.5,135C 182.115,135.614 184.949,137.447 187,140.5C 187.187,147.081 187.687,153.581 188.5,160C 201.545,160.185 214.545,160.685 227.5,161.5C 229.577,163.076 231.077,165.076 232,167.5C 232.667,171.833 232.667,176.167 232,180.5C 231.617,181.056 231.117,181.389 230.5,181.5C 230.167,181.5 229.833,181.5 229.5,181.5C 228.833,181.5 228.5,181.167 228.5,180.5C 227.833,180.5 227.5,180.167 227.5,179.5C 227.167,178.167 226.833,178.167 226.5,179.5C 225.833,179.5 225.5,179.167 225.5,178.5C 224.833,178.5 224.5,178.167 224.5,177.5C 224.158,176.662 223.492,176.328 222.5,176.5C 222.158,175.662 221.492,175.328 220.5,175.5C 220.158,174.662 219.492,174.328 218.5,174.5C 218.158,173.662 217.492,173.328 216.5,173.5C 215.432,172.566 214.099,172.232 212.5,172.5C 211.791,171.596 210.791,171.263 209.5,171.5C 206.167,171.5 202.833,171.5 199.5,171.5C 198.209,171.263 197.209,171.596 196.5,172.5C 194.102,172.259 192.102,172.926 190.5,174.5C 189.508,174.328 188.842,174.662 188.5,175.5C 187.508,175.328 186.842,175.662 186.5,176.5C 185.833,176.5 185.5,176.833 185.5,177.5C 185.167,177.5 184.833,177.5 184.5,177.5C 183.833,177.5 183.5,177.833 183.5,178.5C 183.5,178.833 183.5,179.167 183.5,179.5C 183.167,179.5 182.833,179.5 182.5,179.5C 182.167,178.167 181.833,178.167 181.5,179.5C 180.833,179.5 180.5,179.833 180.5,180.5C 178.16,183.505 175.826,186.505 173.5,189.5C 172.675,190.386 171.675,190.719 170.5,190.5C 167.509,201.639 167.843,212.639 171.5,223.5C 167.818,223.665 164.152,223.499 160.5,223C 158.641,221.442 157.141,219.609 156,217.5C 156.159,192.147 155.326,167.147 153.5,142.5C 155.604,140.901 157.604,139.068 159.5,137C 158.906,136.536 158.239,136.369 157.5,136.5C 159.936,135.129 162.603,134.129 165.5,133.5 Z M 196.5,172.5 C 197.167,172.5 197.5,172.833 197.5,173.5C 195.139,173.674 192.806,174.007 190.5,174.5C 192.102,172.926 194.102,172.259 196.5,172.5 Z"/></g>
<g><path style="opacity:0.02" fill="#dae1e1" d="M 196.5,172.5 C 197.209,171.596 198.209,171.263 199.5,171.5C 202.833,172.833 206.167,172.833 209.5,171.5C 210.791,171.263 211.791,171.596 212.5,172.5C 211.833,172.5 211.5,172.833 211.5,173.5C 206.833,173.5 202.167,173.5 197.5,173.5C 197.5,172.833 197.167,172.5 196.5,172.5 Z"/></g>
<g><path style="opacity:1" fill="#95b2b2" d="M 332.5,309.5 C 331.453,308.922 331.62,308.256 333,307.5C 333.667,289.833 333.667,272.167 333,254.5C 331.482,252.652 329.649,251.152 327.5,250C 323.848,249.501 320.182,249.335 316.5,249.5C 315.069,248.22 314.402,246.553 314.5,244.5C 316.223,243.2 318.39,242.533 321,242.5C 325.243,242.113 329.076,243.113 332.5,245.5C 333.833,243.833 333.833,242.167 332.5,240.5C 330.972,239.139 329.305,237.972 327.5,237C 323.129,236.828 318.796,236.328 314.5,235.5C 314.137,234.817 313.804,234.15 313.5,233.5C 315.42,232.935 317.087,231.935 318.5,230.5C 319.885,229.426 321.051,228.093 322,226.5C 322.792,222.921 324.125,219.588 326,216.5C 326.831,209.476 326.664,202.476 325.5,195.5C 324.479,194.099 323.479,192.765 322.5,191.5C 321.611,189.264 320.278,187.264 318.5,185.5C 310.853,178.644 302.187,175.311 292.5,175.5C 284.684,174.508 276.684,174.174 268.5,174.5C 263.6,173.2 258.6,173.2 253.5,174.5C 252.668,204.331 252.168,234.331 252,264.5C 251.667,264.167 251.333,263.833 251,263.5C 250.667,264.833 250.333,266.167 250,267.5C 249.437,262.61 248.937,257.943 248.5,253.5C 246.36,255.14 245.36,257.307 245.5,260C 246.514,263.812 246.514,267.645 245.5,271.5C 244.5,271.5 243.5,271.5 242.5,271.5C 242.5,268.833 242.5,266.167 242.5,263.5C 243.998,252.145 241.165,242.145 234,233.5C 233.617,234.056 233.117,234.389 232.5,234.5C 228.833,231.167 225.167,227.833 221.5,224.5C 225.261,223.515 228.428,221.515 231,218.5C 232.186,212.915 232.852,207.249 233,201.5C 233.717,200.956 234.217,200.289 234.5,199.5C 236.667,198.354 238,196.521 238.5,194C 235.291,191.082 232.958,187.582 231.5,183.5C 230.833,183.5 230.5,183.167 230.5,182.5C 230.5,182.167 230.5,181.833 230.5,181.5C 231.117,181.389 231.617,181.056 232,180.5C 232.667,176.167 232.667,171.833 232,167.5C 231.077,165.076 229.577,163.076 227.5,161.5C 214.545,160.685 201.545,160.185 188.5,160C 187.687,153.581 187.187,147.081 187,140.5C 184.949,137.447 182.115,135.614 178.5,135C 179.056,134.617 179.389,134.117 179.5,133.5C 185.299,131.717 191.299,130.217 197.5,129C 243.797,121.268 289.131,124.934 333.5,140C 358.236,148.788 379.402,162.955 397,182.5C 417.075,209.968 417.409,237.635 398,265.5C 380.387,286.251 358.553,300.918 332.5,309.5 Z"/></g>
<g><path style="opacity:1" fill="#657b7b" d="M 313.5,233.5 C 313.804,234.15 314.137,234.817 314.5,235.5C 318.796,236.328 323.129,236.828 327.5,237C 329.305,237.972 330.972,239.139 332.5,240.5C 333.833,242.167 333.833,243.833 332.5,245.5C 329.076,243.113 325.243,242.113 321,242.5C 318.39,242.533 316.223,243.2 314.5,244.5C 313.037,241.797 312.204,238.797 312,235.5C 311.346,236.696 310.846,236.696 310.5,235.5C 311.005,234.081 312.005,233.415 313.5,233.5 Z"/></g>
<g><path style="opacity:1" fill="#76908f" d="M 356.5,215.5 C 362.002,215.845 364.502,218.845 364,224.5C 364.059,221.178 365.226,218.344 367.5,216C 370.804,214.958 372.971,216.125 374,219.5C 374.497,221.81 374.663,224.143 374.5,226.5C 377.808,227.026 379.974,225.693 381,222.5C 381.494,220.866 381.66,219.199 381.5,217.5C 379.669,218.052 378.003,218.052 376.5,217.5C 378.915,214.872 381.415,214.872 384,217.5C 384.667,218.833 384.667,220.167 384,221.5C 382.692,223.641 381.192,225.641 379.5,227.5C 380.833,228.167 382.167,228.833 383.5,229.5C 381.041,230.326 378.541,230.993 376,231.5C 370.357,228.684 364.691,228.351 359,230.5C 357.5,230.167 356,229.833 354.5,229.5C 355.851,226.804 357.684,224.47 360,222.5C 360.494,220.866 360.66,219.199 360.5,217.5C 359.07,217.421 357.736,217.754 356.5,218.5C 355.438,217.575 355.438,216.575 356.5,215.5 Z"/></g>
<g><path style="opacity:1" fill="#566d6e" d="M 389.5,217.5 C 389.574,220.349 389.908,223.349 390.5,226.5C 391.167,224.833 391.833,223.167 392.5,221.5C 393.833,224.167 393.833,226.833 392.5,229.5C 390.821,227.896 388.821,227.229 386.5,227.5C 386.924,223.988 387.924,220.655 389.5,217.5 Z"/></g>
<g><path style="opacity:0.784" fill="#576364" d="M 294.5,193.5 C 298.961,193.79 301.795,196.123 303,200.5C 305.888,217.612 298.722,224.779 281.5,222C 279.939,221.682 278.772,220.849 278,219.5C 277.177,211.323 277.344,203.323 278.5,195.5C 279.167,203.343 279.833,211.343 280.5,219.5C 293.429,223.557 300.429,218.89 301.5,205.5C 301.379,200.07 299.046,196.07 294.5,193.5 Z"/></g>
<g><path style="opacity:1" fill="#95b0b0" d="M 294.5,193.5 C 299.046,196.07 301.379,200.07 301.5,205.5C 300.429,218.89 293.429,223.557 280.5,219.5C 279.833,211.343 279.167,203.343 278.5,195.5C 278.5,194.5 278.5,193.5 278.5,192.5C 283.88,192.324 289.213,192.658 294.5,193.5 Z"/></g>
<g><path style="opacity:0.605" fill="#616f70" d="M 322.5,191.5 C 323.479,192.765 324.479,194.099 325.5,195.5C 326.664,202.476 326.831,209.476 326,216.5C 324.125,219.588 322.792,222.921 322,226.5C 321.051,228.093 319.885,229.426 318.5,230.5C 324.928,218.143 326.261,205.143 322.5,191.5 Z"/></g>
<g><path style="opacity:1" fill="#647979" d="M 194.5,147.5 C 205.564,147.094 216.564,147.594 227.5,149C 229.448,150.439 230.781,152.272 231.5,154.5C 231.167,155.167 230.833,155.833 230.5,156.5C 228.333,155.208 226,154.375 223.5,154C 213.839,153.5 204.172,153.334 194.5,153.5C 194.5,151.5 194.5,149.5 194.5,147.5 Z"/></g>
<g><path style="opacity:0.004" fill="#fefffe" d="M 487.5,336.5 C 488.833,337.167 488.833,337.167 487.5,336.5 Z"/></g>
<g><path style="opacity:0.004" fill="#fefffe" d="M 164.5,341.5 C 165.833,342.167 165.833,342.167 164.5,341.5 Z"/></g>
<g><path style="opacity:0.004" fill="#fefffe" d="M 355.5,343.5 C 356.833,344.167 356.833,344.167 355.5,343.5 Z"/></g>
<g><path style="opacity:0.004" fill="#fefffe" d="M 464.5,346.5 C 465.833,347.167 465.833,347.167 464.5,346.5 Z"/></g>
<g><path style="opacity:0.012" fill="#cdebeb" d="M 277.5,358.5 C 276.934,365.451 277.601,372.118 279.5,378.5C 278.5,378.5 277.5,378.5 276.5,378.5C 276.768,376.901 276.434,375.568 275.5,374.5C 275.5,373.167 275.5,371.833 275.5,370.5C 276.167,366.5 276.833,362.5 277.5,358.5 Z"/></g>
<g><path style="opacity:0.925" fill="#595e5e" d="M 339.5,372.5 C 341.434,368.112 342.767,363.445 343.5,358.5C 345.604,358.201 347.604,358.534 349.5,359.5C 352.198,365.589 353.865,371.922 354.5,378.5C 352.833,378.5 351.167,378.5 349.5,378.5C 350.101,374.091 348.434,372.758 344.5,374.5C 343.754,375.736 343.421,377.07 343.5,378.5C 341.833,378.5 340.167,378.5 338.5,378.5C 338.833,376.5 339.167,374.5 339.5,372.5 Z M 346.5,366.5 C 347.782,367.708 347.782,369.042 346.5,370.5C 346.094,369.443 346.094,368.109 346.5,366.5 Z"/></g>
<g><path style="opacity:0.822" fill="#525757" d="M 117.5,358.5 C 121.911,357.66 125.577,358.827 128.5,362C 126.191,364.051 124.024,363.884 122,361.5C 121.075,362.047 120.242,362.713 119.5,363.5C 122.511,365.57 125.344,367.904 128,370.5C 129.041,373.636 128.207,376.136 125.5,378C 122.5,378.667 119.5,378.667 116.5,378C 112.796,375.864 112.796,374.031 116.5,372.5C 118.258,373.128 119.758,374.128 121,375.5C 124.151,373.948 124.318,372.115 121.5,370C 113.976,368.17 112.642,364.336 117.5,358.5 Z"/></g>
<g><path style="opacity:0.635" fill="#55595a" d="M 191.5,374.5 C 191.414,375.496 191.748,376.329 192.5,377C 191.584,377.278 190.918,377.778 190.5,378.5C 187.53,378.254 186.197,376.588 186.5,373.5C 184.833,373.5 183.167,373.5 181.5,373.5C 181.579,374.93 181.246,376.264 180.5,377.5C 172.138,380.895 168.805,378.229 170.5,369.5C 169.167,369.5 167.833,369.5 166.5,369.5C 166.5,372.5 166.5,375.5 166.5,378.5C 164.833,378.5 163.167,378.5 161.5,378.5C 161.5,371.833 161.5,365.167 161.5,358.5C 163.167,358.5 164.833,358.5 166.5,358.5C 166.5,361.5 166.5,364.5 166.5,367.5C 167.833,367.5 169.167,367.5 170.5,367.5C 170.5,364.5 170.5,361.5 170.5,358.5C 172.167,358.5 173.833,358.5 175.5,358.5C 176.34,364.477 176.507,370.477 176,376.5C 178.42,371.073 180.087,365.407 181,359.5C 183,358.167 185,358.167 187,359.5C 188.81,364.429 190.31,369.429 191.5,374.5 Z M 183.5,367.5 C 185.465,367.948 185.798,368.948 184.5,370.5C 183.614,369.675 183.281,368.675 183.5,367.5 Z"/></g>
<g><path style="opacity:0.667" fill="#3d4243" d="M 231.5,370.5 C 231.5,371.5 231.5,372.5 231.5,373.5C 230.041,373.567 228.708,373.234 227.5,372.5C 227.5,372.167 227.5,371.833 227.5,371.5C 227.44,370.957 227.107,370.624 226.5,370.5C 225.74,373.187 225.073,375.853 224.5,378.5C 223.5,378.5 222.5,378.5 221.5,378.5C 221.5,371.833 221.5,365.167 221.5,358.5C 224.85,358.335 228.183,358.502 231.5,359C 235.433,362.876 235.433,366.71 231.5,370.5 Z M 227.5,361.5 C 230.23,364.033 229.897,366.033 226.5,367.5C 226.205,365.265 226.539,363.265 227.5,361.5 Z"/></g>
<g><path style="opacity:0.039" fill="#afb0b0" d="M 227.5,361.5 C 226.539,363.265 226.205,365.265 226.5,367.5C 225.203,365.307 225.203,362.973 226.5,360.5C 227.107,360.624 227.44,360.957 227.5,361.5 Z"/></g>
<g><path style="opacity:0.461" fill="#4b5050" d="M 252.5,374.5 C 253.209,375.404 254.209,375.737 255.5,375.5C 255.5,369.833 255.5,364.167 255.5,358.5C 256.833,358.5 258.167,358.5 259.5,358.5C 259.916,364.952 259.416,371.285 258,377.5C 253.934,378.464 249.767,378.797 245.5,378.5C 245.574,374.299 243.741,372.965 240,374.5C 239.51,375.793 239.343,377.127 239.5,378.5C 236.482,378.665 233.482,378.498 230.5,378C 229.242,376.259 228.242,374.426 227.5,372.5C 228.708,373.234 230.041,373.567 231.5,373.5C 231.5,372.5 231.5,371.5 231.5,370.5C 232.558,371.6 233.392,372.934 234,374.5C 236.451,369.354 238.284,364.021 239.5,358.5C 241.5,358.5 243.5,358.5 245.5,358.5C 246.094,363.298 247.26,367.965 249,372.5C 249.71,373.973 250.876,374.64 252.5,374.5 Z M 241.5,366.5 C 242.249,367.531 242.915,368.698 243.5,370C 242.5,370.667 241.5,370.667 240.5,370C 241.337,368.989 241.67,367.822 241.5,366.5 Z"/></g>
<g><path style="opacity:0.063" fill="#a7a8a8" d="M 255.5,358.5 C 255.5,364.167 255.5,369.833 255.5,375.5C 254.209,375.737 253.209,375.404 252.5,374.5C 254.144,369.41 255.144,364.077 255.5,358.5 Z"/></g>
<g><path style="opacity:0.129" fill="#bbbdbd" d="M 321.5,358.5 C 322.165,361.649 322.498,364.982 322.5,368.5C 322.486,372.239 321.82,375.572 320.5,378.5C 321.46,371.922 321.793,365.255 321.5,358.5 Z"/></g>
<g><path style="opacity:0.898" fill="#4b5051" d="M 355.5,358.5 C 366.686,356.505 370.353,360.672 366.5,371C 367.8,373.437 368.8,375.937 369.5,378.5C 367.712,378.785 366.045,378.452 364.5,377.5C 361.24,370.565 359.906,370.898 360.5,378.5C 358.833,378.5 357.167,378.5 355.5,378.5C 355.5,371.833 355.5,365.167 355.5,358.5 Z M 360.5,361.5 C 363.96,363.061 364.293,365.061 361.5,367.5C 360.534,365.604 360.201,363.604 360.5,361.5 Z"/></g>
<g><path style="opacity:0.541" fill="#585d5c" d="M 370.5,358.5 C 372.167,358.5 373.833,358.5 375.5,358.5C 375.5,365.167 375.5,371.833 375.5,378.5C 373.833,378.5 372.167,378.5 370.5,378.5C 370.5,371.833 370.5,365.167 370.5,358.5 Z"/></g>
<g><path style="opacity:0.004" fill="#fefffe" d="M 79.5,368.5 C 80.8333,369.167 80.8333,369.167 79.5,368.5 Z"/></g>
<g><path style="opacity:0.698" fill="#565a5b" d="M 275.5,370.5 C 275.5,371.833 275.5,373.167 275.5,374.5C 275.426,376.411 274.426,377.578 272.5,378C 268.909,378.789 265.409,378.622 262,377.5C 261.764,371.16 261.597,364.827 261.5,358.5C 265.571,358.234 269.571,358.567 273.5,359.5C 274.696,360.559 275.363,361.893 275.5,363.5C 274.179,365.853 274.179,368.186 275.5,370.5 Z M 266.5,361.5 C 269.709,362.297 270.209,363.963 268,366.5C 266.731,365.095 266.231,363.429 266.5,361.5 Z M 266.5,369.5 C 268.948,369.085 270.281,370.085 270.5,372.5C 270.132,373.91 269.299,374.91 268,375.5C 266.872,373.655 266.372,371.655 266.5,369.5 Z"/></g>
<g><path style="opacity:0.89" fill="#4d5252" d="M 145.5,358.5 C 149.571,358.234 153.571,358.567 157.5,359.5C 159.682,361.734 160.015,364.234 158.5,367C 161.554,371.395 160.887,375.061 156.5,378C 153.183,378.498 149.85,378.665 146.5,378.5C 146.37,371.671 146.037,365.004 145.5,358.5 Z M 150.5,369.5 C 154.5,368.833 156.167,370.5 155.5,374.5C 151.579,375.844 149.912,374.177 150.5,369.5 Z M 150.5,362.5 C 152.112,361.445 153.445,361.945 154.5,364C 153.991,365.169 153.158,366.002 152,366.5C 150.738,365.125 150.238,363.792 150.5,362.5 Z"/></g>
<g><path style="opacity:0.808" fill="#474d4d" d="M 194.5,358.5 C 195.978,358.238 197.311,358.571 198.5,359.5C 199.764,362.125 200.931,364.792 202,367.5C 203.302,364.625 204.135,361.625 204.5,358.5C 206.5,358.5 208.5,358.5 210.5,358.5C 210.5,365.167 210.5,371.833 210.5,378.5C 208.833,378.5 207.167,378.5 205.5,378.5C 205.66,376.801 205.494,375.134 205,373.5C 204.517,374.448 204.351,375.448 204.5,376.5C 202.219,376.923 200.552,376.256 199.5,374.5C 199.291,373.078 198.791,371.745 198,370.5C 197.503,372.81 197.337,375.143 197.5,377.5C 196.432,378.434 195.099,378.768 193.5,378.5C 193.207,371.745 193.54,365.078 194.5,358.5 Z"/></g>
<g><path style="opacity:0.794" fill="#616565" d="M 137.5,375.5 C 139.211,370.18 140.211,364.514 140.5,358.5C 141.822,358.33 142.989,358.663 144,359.5C 144.667,364.5 144.667,369.5 144,374.5C 142.865,377.859 140.532,379.192 137,378.5C 133.468,379.192 131.135,377.859 130,374.5C 129.501,369.177 129.334,363.844 129.5,358.5C 131.167,358.5 132.833,358.5 134.5,358.5C 134.172,363.875 134.505,369.208 135.5,374.5C 136.183,374.863 136.85,375.196 137.5,375.5 Z"/></g>
<g><path style="opacity:0.008" fill="#f0f0f0" d="M 140.5,358.5 C 140.211,364.514 139.211,370.18 137.5,375.5C 137.789,369.486 138.789,363.82 140.5,358.5 Z"/></g>
<g><path style="opacity:0.005" fill="#ececec" d="M 199.5,374.5 C 198.833,375.5 198.167,376.5 197.5,377.5C 197.337,375.143 197.503,372.81 198,370.5C 198.791,371.745 199.291,373.078 199.5,374.5 Z"/></g>
<g><path style="opacity:0.98" fill="#545859" d="M 277.5,358.5 C 279.167,358.5 280.833,358.5 282.5,358.5C 282.5,361.5 282.5,364.5 282.5,367.5C 283.833,367.5 285.167,367.5 286.5,367.5C 286.5,364.5 286.5,361.5 286.5,358.5C 288.167,358.5 289.833,358.5 291.5,358.5C 291.334,364.509 291.501,370.509 292,376.5C 297.368,352.508 302.701,352.508 308,376.5C 308.499,370.509 308.666,364.509 308.5,358.5C 313.367,357.665 316.034,359.665 316.5,364.5C 316.892,366.179 317.392,367.846 318,369.5C 318.499,365.848 318.665,362.182 318.5,358.5C 319.5,358.5 320.5,358.5 321.5,358.5C 321.793,365.255 321.46,371.922 320.5,378.5C 319.167,378.5 317.833,378.5 316.5,378.5C 314.348,369.474 313.348,369.474 313.5,378.5C 310.15,378.665 306.817,378.498 303.5,378C 302.62,376.644 302.286,375.144 302.5,373.5C 300.833,373.5 299.167,373.5 297.5,373.5C 297.579,374.93 297.246,376.264 296.5,377.5C 293.232,378.487 289.898,378.82 286.5,378.5C 286.5,375.5 286.5,372.5 286.5,369.5C 285.167,369.5 283.833,369.5 282.5,369.5C 282.5,372.5 282.5,375.5 282.5,378.5C 281.5,378.5 280.5,378.5 279.5,378.5C 277.601,372.118 276.934,365.451 277.5,358.5 Z M 299.5,367.5 C 300.776,368.386 300.776,369.386 299.5,370.5C 298.913,369.767 298.913,368.767 299.5,367.5 Z"/></g>
<g><path style="opacity:0.01" fill="#f5f5f5" d="M 318.5,358.5 C 318.665,362.182 318.499,365.848 318,369.5C 317.392,367.846 316.892,366.179 316.5,364.5C 317.167,362.5 317.833,360.5 318.5,358.5 Z"/></g>
<g><path style="opacity:0.02" fill="#cecece" d="M 194.5,358.5 C 193.54,365.078 193.207,371.745 193.5,378.5C 192.5,378.5 191.5,378.5 190.5,378.5C 190.918,377.778 191.584,377.278 192.5,377C 191.748,376.329 191.414,375.496 191.5,374.5C 191.856,368.923 192.856,363.59 194.5,358.5 Z"/></g>
<g><path style="opacity:0.043" fill="#bebfbf" d="M 227.5,371.5 C 227.083,374.159 226.083,376.492 224.5,378.5C 225.073,375.853 225.74,373.187 226.5,370.5C 227.107,370.624 227.44,370.957 227.5,371.5 Z"/></g>
<g><path style="opacity:0.821" fill="#5a5e5d" d="M 339.5,372.5 C 336.181,378.053 331.181,380.053 324.5,378.5C 324.5,371.833 324.5,365.167 324.5,358.5C 335.575,356.647 340.575,361.314 339.5,372.5 Z M 329.5,361.5 C 330.708,362.234 332.041,362.567 333.5,362.5C 333.878,364.646 334.212,366.813 334.5,369C 334.744,371.385 333.911,373.218 332,374.5C 331.228,374.355 330.561,374.022 330,373.5C 329.501,369.514 329.334,365.514 329.5,361.5 Z"/></g>
<g><path style="opacity:0.004" fill="#fefffe" d="M 112.5,377.5 C 113.833,378.167 113.833,378.167 112.5,377.5 Z"/></g>
<g><path style="opacity:0.004" fill="#fefffe" d="M 286.5,389.5 C 287.833,390.167 287.833,390.167 286.5,389.5 Z"/></g>
<g><path style="opacity:0.004" fill="#fefffe" d="M 187.5,390.5 C 188.833,391.167 188.833,391.167 187.5,390.5 Z"/></g>
<g><path style="opacity:0.004" fill="#fefffe" d="M 101.5,393.5 C 102.833,394.167 102.833,394.167 101.5,393.5 Z"/></g>
<g><path style="opacity:0.004" fill="#fefffe" d="M 437.5,395.5 C 438.833,396.167 438.833,396.167 437.5,395.5 Z"/></g>
<g><path style="opacity:0.004" fill="#fefffe" d="M 410.5,399.5 C 411.833,400.167 411.833,400.167 410.5,399.5 Z"/></g>
<g><path style="opacity:0.004" fill="#fefffe" d="M 407.5,401.5 C 408.833,402.167 408.833,402.167 407.5,401.5 Z"/></g>
<g><path style="opacity:0.004" fill="#fefffe" d="M 284.5,404.5 C 285.833,405.167 285.833,405.167 284.5,404.5 Z"/></g>
<g><path style="opacity:0.004" fill="#fefffe" d="M 432.5,405.5 C 433.833,406.167 433.833,406.167 432.5,405.5 Z"/></g>
<g><path style="opacity:0.004" fill="#fefffe" d="M 159.5,416.5 C 160.833,417.167 160.833,417.167 159.5,416.5 Z"/></g>
<g><path style="opacity:0.004" fill="#fefffe" d="M 481.5,422.5 C 482.833,423.167 482.833,423.167 481.5,422.5 Z"/></g>
<g><path style="opacity:0.004" fill="#fefffe" d="M 49.5,423.5 C 50.8333,424.167 50.8333,424.167 49.5,423.5 Z"/></g>
<g><path style="opacity:0.004" fill="#fefffe" d="M 69.5,432.5 C 70.8333,433.167 70.8333,433.167 69.5,432.5 Z"/></g>
<g><path style="opacity:0.004" fill="#fefffe" d="M 424.5,435.5 C 425.833,436.167 425.833,436.167 424.5,435.5 Z"/></g>
<g><path style="opacity:0.004" fill="#fefffe" d="M 427.5,444.5 C 428.833,445.167 428.833,445.167 427.5,444.5 Z"/></g>
<g><path style="opacity:0.004" fill="#fefffe" d="M 218.5,447.5 C 219.833,448.167 219.833,448.167 218.5,447.5 Z"/></g>
<g><path style="opacity:0.004" fill="#fefffe" d="M 109.5,450.5 C 110.833,451.167 110.833,451.167 109.5,450.5 Z"/></g>
<g><path style="opacity:0.004" fill="#fefffe" d="M 304.5,453.5 C 305.833,454.167 305.833,454.167 304.5,453.5 Z"/></g>
<g><path style="opacity:0.004" fill="#fefffe" d="M 238.5,457.5 C 239.833,458.167 239.833,458.167 238.5,457.5 Z"/></g>
<g><path style="opacity:0.004" fill="#fefffe" d="M 88.5,460.5 C 89.8333,461.167 89.8333,461.167 88.5,460.5 Z"/></g>
<g><path style="opacity:0.004" fill="#fefffe" d="M 203.5,460.5 C 204.833,461.167 204.833,461.167 203.5,460.5 Z"/></g>
<g><path style="opacity:0.004" fill="#fefffe" d="M 267.5,465.5 C 268.833,466.167 268.833,466.167 267.5,465.5 Z"/></g>
<g><path style="opacity:0.004" fill="#fefffe" d="M 101.5,474.5 C 102.833,475.167 102.833,475.167 101.5,474.5 Z"/></g>
<g><path style="opacity:0.004" fill="#fefffe" d="M 87.5,479.5 C 88.8333,480.167 88.8333,480.167 87.5,479.5 Z"/></g>
<g><path style="opacity:0.004" fill="#fefffe" d="M 221.5,481.5 C 222.833,482.167 222.833,482.167 221.5,481.5 Z"/></g>
</svg>
